<svg xmlns="http://www.w3.org/2000/svg" xmlns:xlink="http://www.w3.org/1999/xlink" width="600" zoomAndPan="magnify" viewBox="0 0 450 299.999988" height="400" preserveAspectRatio="xMidYMid meet" version="1.0"><defs><clipPath id="dc7a0886c8"><path d="M 18 55 L 254 55 L 254 257 L 18 257 Z M 18 55 " clip-rule="nonzero"/></clipPath><clipPath id="a0e806dd4a"><path d="M 239.066406 67.070312 L 212.683594 219 C 206.480469 243.394531 187.210938 244.929688 177.980469 244.929688 L 32.355469 244.929688 L 59.164062 90.65625 C 59.945312 87.632812 63.527344 79.417969 69.554688 74.554688 C 75.230469 69.96875 83.074219 67.019531 89.910156 67.019531 L 239.066406 67.019531 M 253.1875 55.199219 L 89.882812 55.199219 C 80.375 55.199219 69.984375 59.003906 62.089844 65.355469 C 53.4375 72.3125 48.875 83.019531 47.664062 87.707031 L 47.539062 88.1875 L 47.460938 88.664062 L 20.652344 242.914062 L 18.230469 256.800781 L 177.953125 256.800781 C 210.441406 256.800781 220.855469 234.953125 224.160156 221.921875 L 224.261719 221.46875 L 224.335938 221.015625 L 250.71875 69.058594 Z M 253.1875 55.199219 " clip-rule="nonzero"/></clipPath><linearGradient x1="10.666293" gradientTransform="matrix(2.522093, 0, 0, 2.519997, -8.251068, 30.000119)" y1="90.192093" x2="103.504126" gradientUnits="userSpaceOnUse" y2="9.819954" id="f35b23736b"><stop stop-opacity="1" stop-color="rgb(0%, 0%, 0%)" offset="0"/><stop stop-opacity="1" stop-color="rgb(0%, 0%, 0%)" offset="0.0625"/><stop stop-opacity="1" stop-color="rgb(0%, 0%, 0%)" offset="0.078125"/><stop stop-opacity="1" stop-color="rgb(1.260376%, 0.834656%, 0.0701904%)" offset="0.0820313"/><stop stop-opacity="1" stop-color="rgb(2.522278%, 1.669312%, 0.141907%)" offset="0.0859375"/><stop stop-opacity="1" stop-color="rgb(3.78418%, 2.503967%, 0.212097%)" offset="0.0898438"/><stop stop-opacity="1" stop-color="rgb(5.046082%, 3.340149%, 0.283813%)" offset="0.09375"/><stop stop-opacity="1" stop-color="rgb(6.295776%, 4.162598%, 0.350952%)" offset="0.0976562"/><stop stop-opacity="1" stop-color="rgb(7.546997%, 4.986572%, 0.418091%)" offset="0.101562"/><stop stop-opacity="1" stop-color="rgb(8.743286%, 5.755615%, 0.466919%)" offset="0.105469"/><stop stop-opacity="1" stop-color="rgb(9.939575%, 6.524658%, 0.515747%)" offset="0.109375"/><stop stop-opacity="1" stop-color="rgb(11.135864%, 7.293701%, 0.564575%)" offset="0.113281"/><stop stop-opacity="1" stop-color="rgb(12.332153%, 8.062744%, 0.613403%)" offset="0.117188"/><stop stop-opacity="1" stop-color="rgb(13.528442%, 8.831787%, 0.662231%)" offset="0.121094"/><stop stop-opacity="1" stop-color="rgb(14.724731%, 9.60083%, 0.71106%)" offset="0.125"/><stop stop-opacity="1" stop-color="rgb(15.921021%, 10.369873%, 0.759888%)" offset="0.128906"/><stop stop-opacity="1" stop-color="rgb(17.11731%, 11.138916%, 0.808716%)" offset="0.132812"/><stop stop-opacity="1" stop-color="rgb(18.313599%, 11.907959%, 0.857544%)" offset="0.136719"/><stop stop-opacity="1" stop-color="rgb(19.509888%, 12.678528%, 0.906372%)" offset="0.140625"/><stop stop-opacity="1" stop-color="rgb(20.706177%, 13.447571%, 0.9552%)" offset="0.144531"/><stop stop-opacity="1" stop-color="rgb(21.902466%, 14.216614%, 1.004028%)" offset="0.148438"/><stop stop-opacity="1" stop-color="rgb(23.098755%, 14.985657%, 1.052856%)" offset="0.152344"/><stop stop-opacity="1" stop-color="rgb(24.295044%, 15.7547%, 1.101685%)" offset="0.15625"/><stop stop-opacity="1" stop-color="rgb(25.491333%, 16.523743%, 1.150513%)" offset="0.160156"/><stop stop-opacity="1" stop-color="rgb(26.689148%, 17.292786%, 1.199341%)" offset="0.164063"/><stop stop-opacity="1" stop-color="rgb(27.66571%, 17.935181%, 1.266479%)" offset="0.167969"/><stop stop-opacity="1" stop-color="rgb(28.643799%, 18.577576%, 1.335144%)" offset="0.171875"/><stop stop-opacity="1" stop-color="rgb(29.620361%, 19.218445%, 1.402283%)" offset="0.175781"/><stop stop-opacity="1" stop-color="rgb(30.59845%, 19.86084%, 1.470947%)" offset="0.179688"/><stop stop-opacity="1" stop-color="rgb(31.575012%, 20.501709%, 1.539612%)" offset="0.183594"/><stop stop-opacity="1" stop-color="rgb(32.551575%, 21.144104%, 1.608276%)" offset="0.1875"/><stop stop-opacity="1" stop-color="rgb(33.528137%, 21.784973%, 1.675415%)" offset="0.191406"/><stop stop-opacity="1" stop-color="rgb(34.506226%, 22.427368%, 1.74408%)" offset="0.195312"/><stop stop-opacity="1" stop-color="rgb(35.482788%, 23.069763%, 1.811218%)" offset="0.199219"/><stop stop-opacity="1" stop-color="rgb(36.459351%, 23.712158%, 1.879883%)" offset="0.203125"/><stop stop-opacity="1" stop-color="rgb(37.435913%, 24.353027%, 1.948547%)" offset="0.207031"/><stop stop-opacity="1" stop-color="rgb(38.414001%, 24.995422%, 2.017212%)" offset="0.210938"/><stop stop-opacity="1" stop-color="rgb(39.390564%, 25.636292%, 2.084351%)" offset="0.214844"/><stop stop-opacity="1" stop-color="rgb(40.367126%, 26.278687%, 2.153015%)" offset="0.21875"/><stop stop-opacity="1" stop-color="rgb(41.343689%, 26.919556%, 2.220154%)" offset="0.222656"/><stop stop-opacity="1" stop-color="rgb(42.321777%, 27.561951%, 2.288818%)" offset="0.226563"/><stop stop-opacity="1" stop-color="rgb(43.269348%, 28.181458%, 2.351379%)" offset="0.230469"/><stop stop-opacity="1" stop-color="rgb(44.216919%, 28.80249%, 2.41394%)" offset="0.234375"/><stop stop-opacity="1" stop-color="rgb(45.039368%, 29.328918%, 2.450562%)" offset="0.238281"/><stop stop-opacity="1" stop-color="rgb(45.863342%, 29.856873%, 2.488708%)" offset="0.242188"/><stop stop-opacity="1" stop-color="rgb(46.685791%, 30.383301%, 2.526855%)" offset="0.246094"/><stop stop-opacity="1" stop-color="rgb(47.509766%, 30.911255%, 2.565002%)" offset="0.25"/><stop stop-opacity="1" stop-color="rgb(48.332214%, 31.437683%, 2.601624%)" offset="0.253906"/><stop stop-opacity="1" stop-color="rgb(49.156189%, 31.965637%, 2.639771%)" offset="0.257813"/><stop stop-opacity="1" stop-color="rgb(49.978638%, 32.493591%, 2.676392%)" offset="0.261719"/><stop stop-opacity="1" stop-color="rgb(50.802612%, 33.021545%, 2.714539%)" offset="0.265625"/><stop stop-opacity="1" stop-color="rgb(51.625061%, 33.547974%, 2.752686%)" offset="0.269531"/><stop stop-opacity="1" stop-color="rgb(52.449036%, 34.075928%, 2.790833%)" offset="0.273438"/><stop stop-opacity="1" stop-color="rgb(53.271484%, 34.602356%, 2.827454%)" offset="0.277344"/><stop stop-opacity="1" stop-color="rgb(54.095459%, 35.13031%, 2.865601%)" offset="0.28125"/><stop stop-opacity="1" stop-color="rgb(54.917908%, 35.656738%, 2.902222%)" offset="0.285156"/><stop stop-opacity="1" stop-color="rgb(55.741882%, 36.184692%, 2.940369%)" offset="0.289062"/><stop stop-opacity="1" stop-color="rgb(56.564331%, 36.711121%, 2.978516%)" offset="0.292969"/><stop stop-opacity="1" stop-color="rgb(57.388306%, 37.239075%, 3.016663%)" offset="0.296875"/><stop stop-opacity="1" stop-color="rgb(58.210754%, 37.767029%, 3.053284%)" offset="0.300781"/><stop stop-opacity="1" stop-color="rgb(59.034729%, 38.294983%, 3.091431%)" offset="0.304688"/><stop stop-opacity="1" stop-color="rgb(59.69696%, 38.710022%, 3.112793%)" offset="0.308594"/><stop stop-opacity="1" stop-color="rgb(60.359192%, 39.126587%, 3.135681%)" offset="0.3125"/><stop stop-opacity="1" stop-color="rgb(61.003113%, 39.529419%, 3.155518%)" offset="0.316406"/><stop stop-opacity="1" stop-color="rgb(61.647034%, 39.933777%, 3.17688%)" offset="0.320313"/><stop stop-opacity="1" stop-color="rgb(62.290955%, 40.338135%, 3.196716%)" offset="0.324219"/><stop stop-opacity="1" stop-color="rgb(62.936401%, 40.742493%, 3.218079%)" offset="0.328125"/><stop stop-opacity="1" stop-color="rgb(63.580322%, 41.145325%, 3.237915%)" offset="0.332031"/><stop stop-opacity="1" stop-color="rgb(64.224243%, 41.549683%, 3.259277%)" offset="0.335938"/><stop stop-opacity="1" stop-color="rgb(64.868164%, 41.952515%, 3.279114%)" offset="0.339844"/><stop stop-opacity="1" stop-color="rgb(65.512085%, 42.356873%, 3.29895%)" offset="0.34375"/><stop stop-opacity="1" stop-color="rgb(66.156006%, 42.76123%, 3.318787%)" offset="0.347656"/><stop stop-opacity="1" stop-color="rgb(66.799927%, 43.165588%, 3.340149%)" offset="0.351562"/><stop stop-opacity="1" stop-color="rgb(67.443848%, 43.56842%, 3.359985%)" offset="0.355469"/><stop stop-opacity="1" stop-color="rgb(68.087769%, 43.972778%, 3.381348%)" offset="0.359375"/><stop stop-opacity="1" stop-color="rgb(68.731689%, 44.37561%, 3.401184%)" offset="0.363281"/><stop stop-opacity="1" stop-color="rgb(69.377136%, 44.779968%, 3.422546%)" offset="0.367188"/><stop stop-opacity="1" stop-color="rgb(70.021057%, 45.184326%, 3.442383%)" offset="0.371094"/><stop stop-opacity="1" stop-color="rgb(70.664978%, 45.588684%, 3.463745%)" offset="0.375"/><stop stop-opacity="1" stop-color="rgb(71.289062%, 45.983887%, 3.485107%)" offset="0.378906"/><stop stop-opacity="1" stop-color="rgb(71.914673%, 46.379089%, 3.507996%)" offset="0.382813"/><stop stop-opacity="1" stop-color="rgb(72.399902%, 46.711731%, 3.546143%)" offset="0.386719"/><stop stop-opacity="1" stop-color="rgb(72.885132%, 47.044373%, 3.58429%)" offset="0.390625"/><stop stop-opacity="1" stop-color="rgb(73.370361%, 47.377014%, 3.622437%)" offset="0.394531"/><stop stop-opacity="1" stop-color="rgb(73.855591%, 47.709656%, 3.660583%)" offset="0.398438"/><stop stop-opacity="1" stop-color="rgb(74.34082%, 48.042297%, 3.69873%)" offset="0.402344"/><stop stop-opacity="1" stop-color="rgb(74.82605%, 48.376465%, 3.736877%)" offset="0.40625"/><stop stop-opacity="1" stop-color="rgb(75.309753%, 48.709106%, 3.775024%)" offset="0.410156"/><stop stop-opacity="1" stop-color="rgb(75.794983%, 49.041748%, 3.813171%)" offset="0.414063"/><stop stop-opacity="1" stop-color="rgb(76.280212%, 49.37439%, 3.851318%)" offset="0.417969"/><stop stop-opacity="1" stop-color="rgb(76.765442%, 49.707031%, 3.889465%)" offset="0.421875"/><stop stop-opacity="1" stop-color="rgb(77.250671%, 50.039673%, 3.926086%)" offset="0.425781"/><stop stop-opacity="1" stop-color="rgb(77.735901%, 50.37384%, 3.964233%)" offset="0.429688"/><stop stop-opacity="1" stop-color="rgb(78.22113%, 50.706482%, 4.00238%)" offset="0.433594"/><stop stop-opacity="1" stop-color="rgb(78.70636%, 51.039124%, 4.040527%)" offset="0.4375"/><stop stop-opacity="1" stop-color="rgb(79.190063%, 51.371765%, 4.078674%)" offset="0.441406"/><stop stop-opacity="1" stop-color="rgb(79.675293%, 51.704407%, 4.116821%)" offset="0.445312"/><stop stop-opacity="1" stop-color="rgb(80.160522%, 52.037048%, 4.154968%)" offset="0.449219"/><stop stop-opacity="1" stop-color="rgb(80.645752%, 52.36969%, 4.193115%)" offset="0.453125"/><stop stop-opacity="1" stop-color="rgb(81.130981%, 52.702332%, 4.231262%)" offset="0.457031"/><stop stop-opacity="1" stop-color="rgb(81.616211%, 53.036499%, 4.269409%)" offset="0.460938"/><stop stop-opacity="1" stop-color="rgb(82.020569%, 53.300476%, 4.293823%)" offset="0.464844"/><stop stop-opacity="1" stop-color="rgb(82.426453%, 53.564453%, 4.319763%)" offset="0.46875"/><stop stop-opacity="1" stop-color="rgb(82.778931%, 53.78418%, 4.336548%)" offset="0.472656"/><stop stop-opacity="1" stop-color="rgb(83.132935%, 54.003906%, 4.354858%)" offset="0.476563"/><stop stop-opacity="1" stop-color="rgb(83.485413%, 54.223633%, 4.371643%)" offset="0.480469"/><stop stop-opacity="1" stop-color="rgb(83.837891%, 54.443359%, 4.388428%)" offset="0.484375"/><stop stop-opacity="1" stop-color="rgb(84.190369%, 54.663086%, 4.405212%)" offset="0.488281"/><stop stop-opacity="1" stop-color="rgb(84.544373%, 54.882812%, 4.423523%)" offset="0.492188"/><stop stop-opacity="1" stop-color="rgb(84.896851%, 55.101013%, 4.440308%)" offset="0.496094"/><stop stop-opacity="1" stop-color="rgb(85.250854%, 55.32074%, 4.457092%)" offset="0.5"/><stop stop-opacity="1" stop-color="rgb(85.603333%, 55.540466%, 4.473877%)" offset="0.503906"/><stop stop-opacity="1" stop-color="rgb(85.955811%, 55.760193%, 4.492188%)" offset="0.507813"/><stop stop-opacity="1" stop-color="rgb(86.308289%, 55.979919%, 4.508972%)" offset="0.511719"/><stop stop-opacity="1" stop-color="rgb(86.662292%, 56.199646%, 4.527283%)" offset="0.515625"/><stop stop-opacity="1" stop-color="rgb(87.014771%, 56.419373%, 4.544067%)" offset="0.519531"/><stop stop-opacity="1" stop-color="rgb(87.368774%, 56.639099%, 4.560852%)" offset="0.523438"/><stop stop-opacity="1" stop-color="rgb(87.721252%, 56.8573%, 4.577637%)" offset="0.527344"/><stop stop-opacity="1" stop-color="rgb(88.07373%, 57.077026%, 4.595947%)" offset="0.53125"/><stop stop-opacity="1" stop-color="rgb(88.426208%, 57.296753%, 4.612732%)" offset="0.535156"/><stop stop-opacity="1" stop-color="rgb(88.780212%, 57.516479%, 4.629517%)" offset="0.539062"/><stop stop-opacity="1" stop-color="rgb(89.13269%, 57.736206%, 4.646301%)" offset="0.542969"/><stop stop-opacity="1" stop-color="rgb(89.486694%, 57.955933%, 4.664612%)" offset="0.546875"/><stop stop-opacity="1" stop-color="rgb(89.839172%, 58.175659%, 4.681396%)" offset="0.550781"/><stop stop-opacity="1" stop-color="rgb(90.19165%, 58.395386%, 4.698181%)" offset="0.554688"/><stop stop-opacity="1" stop-color="rgb(90.405273%, 58.534241%, 4.698181%)" offset="0.558594"/><stop stop-opacity="1" stop-color="rgb(90.618896%, 58.674622%, 4.699707%)" offset="0.5625"/><stop stop-opacity="1" stop-color="rgb(90.830994%, 58.813477%, 4.699707%)" offset="0.566406"/><stop stop-opacity="1" stop-color="rgb(91.043091%, 58.952332%, 4.699707%)" offset="0.570313"/><stop stop-opacity="1" stop-color="rgb(91.255188%, 59.091187%, 4.699707%)" offset="0.574219"/><stop stop-opacity="1" stop-color="rgb(91.468811%, 59.230042%, 4.699707%)" offset="0.578125"/><stop stop-opacity="1" stop-color="rgb(91.680908%, 59.368896%, 4.699707%)" offset="0.582031"/><stop stop-opacity="1" stop-color="rgb(91.893005%, 59.507751%, 4.699707%)" offset="0.585938"/><stop stop-opacity="1" stop-color="rgb(92.105103%, 59.646606%, 4.699707%)" offset="0.589844"/><stop stop-opacity="1" stop-color="rgb(92.3172%, 59.785461%, 4.699707%)" offset="0.59375"/><stop stop-opacity="1" stop-color="rgb(92.529297%, 59.924316%, 4.699707%)" offset="0.597656"/><stop stop-opacity="1" stop-color="rgb(92.741394%, 60.063171%, 4.699707%)" offset="0.601563"/><stop stop-opacity="1" stop-color="rgb(92.953491%, 60.202026%, 4.699707%)" offset="0.605469"/><stop stop-opacity="1" stop-color="rgb(93.165588%, 60.340881%, 4.699707%)" offset="0.609375"/><stop stop-opacity="1" stop-color="rgb(93.377686%, 60.479736%, 4.699707%)" offset="0.613281"/><stop stop-opacity="1" stop-color="rgb(93.589783%, 60.618591%, 4.699707%)" offset="0.617188"/><stop stop-opacity="1" stop-color="rgb(93.80188%, 60.757446%, 4.699707%)" offset="0.621094"/><stop stop-opacity="1" stop-color="rgb(94.013977%, 60.896301%, 4.699707%)" offset="0.625"/><stop stop-opacity="1" stop-color="rgb(94.226074%, 61.035156%, 4.699707%)" offset="0.628906"/><stop stop-opacity="1" stop-color="rgb(94.438171%, 61.174011%, 4.699707%)" offset="0.632812"/><stop stop-opacity="1" stop-color="rgb(94.650269%, 61.312866%, 4.699707%)" offset="0.636719"/><stop stop-opacity="1" stop-color="rgb(94.863892%, 61.451721%, 4.699707%)" offset="0.640625"/><stop stop-opacity="1" stop-color="rgb(95.075989%, 61.590576%, 4.699707%)" offset="0.644531"/><stop stop-opacity="1" stop-color="rgb(95.288086%, 61.729431%, 4.699707%)" offset="0.648438"/><stop stop-opacity="1" stop-color="rgb(95.495605%, 61.865234%, 4.699707%)" offset="0.652344"/><stop stop-opacity="1" stop-color="rgb(95.704651%, 62.002563%, 4.699707%)" offset="0.65625"/><stop stop-opacity="1" stop-color="rgb(95.899963%, 62.121582%, 4.724121%)" offset="0.671875"/><stop stop-opacity="1" stop-color="rgb(96.290588%, 62.361145%, 4.774475%)" offset="0.6875"/><stop stop-opacity="1" stop-color="rgb(96.679688%, 62.600708%, 4.824829%)" offset="0.703125"/><stop stop-opacity="1" stop-color="rgb(97.070312%, 62.838745%, 4.875183%)" offset="0.71875"/><stop stop-opacity="1" stop-color="rgb(97.459412%, 63.078308%, 4.925537%)" offset="0.734375"/><stop stop-opacity="1" stop-color="rgb(97.850037%, 63.317871%, 4.975891%)" offset="0.75"/><stop stop-opacity="1" stop-color="rgb(98.240662%, 63.555908%, 5.026245%)" offset="0.765625"/><stop stop-opacity="1" stop-color="rgb(98.620605%, 63.789368%, 5.075073%)" offset="0.78125"/><stop stop-opacity="1" stop-color="rgb(98.89679%, 63.963318%, 5.099487%)" offset="0.8125"/><stop stop-opacity="1" stop-color="rgb(99.169922%, 64.146423%, 5.099487%)" offset="0.875"/><stop stop-opacity="1" stop-color="rgb(99.534607%, 64.390564%, 5.099487%)" offset="0.9375"/><stop stop-opacity="1" stop-color="rgb(99.858093%, 64.605713%, 5.099487%)" offset="1"/></linearGradient></defs><rect x="-45" width="540" fill="#ffffff" y="-29.999999" height="359.999986" fill-opacity="1"/><rect x="-45" width="540" fill="#ffffff" y="-29.999999" height="359.999986" fill-opacity="1"/><g clip-path="url(#dc7a0886c8)"><g clip-path="url(#a0e806dd4a)"><path fill="url(#f35b23736b)" d="M 18.230469 55.199219 L 18.230469 256.800781 L 253.1875 256.800781 L 253.1875 55.199219 Z M 18.230469 55.199219 " fill-rule="nonzero"/></g></g><path fill="#000000" d="M 97.675781 81.886719 C 92.027344 81.886719 85.496094 84.332031 80.777344 88.160156 C 75.785156 92.21875 72.808594 99.046875 72.152344 101.566406 L 49.910156 230.136719 L 78.710938 230.136719 L 93.339844 147.683594 L 114.019531 147.683594 L 109.175781 174.574219 L 140.550781 174.574219 C 163.679688 174.574219 171.296875 159.050781 171.296875 146.195312 C 171.296875 135.4375 166.328125 126.492188 145.167969 126.492188 L 97.097656 126.441406 L 100.199219 108.976562 L 141.132812 108.976562 C 176.59375 108.976562 188.773438 125.207031 188.773438 144.230469 C 188.773438 165.929688 178.003906 191.835938 138.484375 191.835938 L 106.203125 191.835938 L 99.367188 230.113281 L 170.816406 230.113281 C 178.484375 230.113281 194.5 228.828125 199.644531 208.492188 L 221.535156 81.863281 L 97.675781 81.863281 Z M 97.675781 81.886719 " fill-opacity="1" fill-rule="nonzero"/><path fill="#000000" d="M 298.511719 88.386719 L 298.613281 87.40625 C 298.914062 84.304688 297.578125 81.660156 290.238281 81.660156 C 284.035156 81.660156 281.765625 84.355469 281.765625 87.65625 C 281.765625 90.503906 282.746094 91.738281 287.4375 93.023438 L 293.011719 94.5625 C 297.097656 95.695312 300.984375 98.292969 300.984375 103.660156 C 300.984375 109.757812 297.148438 115.125 287.691406 115.125 C 275.6875 115.125 273.214844 110.640625 273.792969 105.925781 L 273.894531 105.046875 L 278.386719 105.046875 L 278.285156 105.878906 C 277.929688 108.773438 279.367188 111.246094 287.488281 111.246094 C 293.59375 111.246094 296.441406 108.546875 296.441406 104.414062 C 296.441406 100.914062 294.726562 99.351562 290.871094 98.316406 L 285.394531 96.882812 C 280.277344 95.546875 277.324219 92.949219 277.324219 88.035156 C 277.324219 82.71875 281.308594 77.804688 290.289062 77.804688 C 300.578125 77.804688 303.632812 82.289062 303.101562 87.304688 L 303 88.339844 L 298.511719 88.339844 Z M 298.511719 88.386719 " fill-opacity="1" fill-rule="nonzero"/><path fill="#000000" d="M 306.277344 96.476562 C 307.113281 91.890625 309.785156 86.726562 317.703125 86.726562 C 327.691406 86.726562 329.761719 92.824219 328.828125 98.441406 L 327.691406 105.324219 C 326.910156 110.035156 324.007812 115.125 316.164062 115.125 C 306.179688 115.125 304.007812 109.027344 305.042969 103.355469 Z M 324.640625 97.988281 C 325.269531 94.386719 324.109375 90.304688 317.753906 90.304688 C 312.9375 90.304688 311.019531 93.757812 310.464844 96.855469 L 309.230469 103.835938 C 308.597656 107.441406 309.683594 111.574219 316.117188 111.574219 C 320.882812 111.574219 322.824219 108.070312 323.402344 104.96875 Z M 324.640625 97.988281 " fill-opacity="1" fill-rule="nonzero"/><path fill="#000000" d="M 336.117188 111.117188 L 333.84375 123.871094 L 329.558594 123.871094 L 335.964844 87.304688 L 339.796875 87.304688 L 339.496094 90.453125 C 341.109375 88.1875 343.730469 86.726562 347.515625 86.726562 C 354.402344 86.726562 358.109375 91.738281 356.921875 98.292969 L 355.636719 105.625 C 354.652344 111.09375 350.769531 115.125 344.941406 115.125 C 340.453125 115.125 337.402344 113.589844 336.117188 111.117188 Z M 351.574219 104.1875 L 352.558594 98.769531 C 353.339844 94.386719 352.410156 90.554688 346.101562 90.554688 C 341.285156 90.554688 339.066406 94.285156 338.359375 98.417969 L 337.476562 103.382812 C 336.695312 107.617188 338.160156 111.34375 344.515625 111.34375 C 349.179688 111.320312 350.84375 108.269531 351.574219 104.1875 Z M 351.574219 104.1875 " fill-opacity="1" fill-rule="nonzero"/><path fill="#000000" d="M 366.355469 98.039062 L 363.453125 114.570312 L 359.167969 114.570312 L 365.773438 76.871094 L 370.0625 76.871094 L 367.742188 90.203125 C 369.40625 88.136719 371.929688 86.75 375.433594 86.75 C 382.574219 86.75 385.976562 91.765625 384.84375 98.015625 L 381.941406 114.597656 L 377.628906 114.597656 L 380.480469 98.46875 C 381.210938 94.488281 380.023438 90.554688 374.175781 90.554688 C 369.207031 90.554688 367.035156 94.261719 366.355469 98.039062 Z M 366.355469 98.039062 " fill-opacity="1" fill-rule="nonzero"/><path fill="#000000" d="M 389.988281 96.476562 C 390.820312 91.890625 393.492188 86.726562 401.414062 86.726562 C 411.398438 86.726562 413.46875 92.824219 412.535156 98.441406 L 411.398438 105.324219 C 410.617188 110.035156 407.71875 115.125 399.875 115.125 C 389.886719 115.125 387.71875 109.027344 388.75 103.355469 Z M 408.347656 97.988281 C 408.980469 94.386719 407.820312 90.304688 401.464844 90.304688 C 396.644531 90.304688 394.753906 93.757812 394.175781 96.855469 L 392.9375 103.835938 C 392.308594 107.441406 393.390625 111.574219 399.824219 111.574219 C 404.589844 111.574219 406.558594 108.070312 407.113281 104.96875 Z M 408.347656 97.988281 " fill-opacity="1" fill-rule="nonzero"/><path fill="#000000" d="M 433.71875 94.839844 L 433.820312 94.210938 C 434.226562 91.839844 433.089844 89.976562 427.820312 89.976562 C 423.328125 89.976562 421.3125 92.242188 421.3125 94.359375 C 421.3125 96.375 422.648438 97.359375 425.195312 97.964844 L 430.214844 99.199219 C 433.519531 100.03125 436.46875 101.945312 436.46875 106.128906 C 436.46875 110.160156 434.148438 115.125 425.296875 115.125 C 416.445312 115.125 414.226562 111.773438 414.550781 107.945312 L 414.601562 107.3125 L 418.789062 107.3125 L 418.738281 107.992188 C 418.589844 110.058594 419.976562 111.773438 425.246094 111.773438 C 430.71875 111.773438 432.28125 109.203125 432.28125 106.960938 C 432.28125 104.542969 431.046875 103.507812 428.398438 102.878906 L 423.53125 101.695312 C 419.847656 100.8125 417.277344 98.898438 417.277344 94.613281 C 417.277344 91.460938 419.925781 86.699219 428.171875 86.699219 C 436.140625 86.699219 438.664062 90.253906 437.933594 94.234375 L 437.832031 94.8125 L 433.71875 94.8125 Z M 433.71875 94.839844 " fill-opacity="1" fill-rule="nonzero"/><path fill="#000000" d="M 290.136719 163.738281 C 289.105469 169.785156 285.597656 175.402344 276.644531 175.402344 C 265.066406 175.402344 262.269531 168.273438 263.402344 161.621094 L 265.523438 149.800781 C 266.503906 144.230469 270.742188 138.132812 279.898438 138.132812 C 289.886719 138.132812 293.390625 143.601562 292.710938 148.816406 L 292.609375 149.648438 L 288.121094 149.648438 L 288.171875 149.019531 C 288.472656 145.515625 286.882812 142.089844 279.59375 142.089844 C 273.542969 142.089844 270.691406 146.070312 270.035156 149.777344 L 267.917969 161.59375 C 267.085938 166.40625 268.597656 171.398438 276.34375 171.398438 C 282.191406 171.398438 284.867188 168.046875 285.546875 164.46875 L 286.277344 160.285156 L 277.125 160.285156 L 277.703125 156.882812 L 291.347656 156.882812 Z M 290.136719 163.738281 " fill-opacity="1" fill-rule="nonzero"/><path fill="#000000" d="M 296.769531 156.757812 C 297.601562 152.167969 300.277344 147.003906 308.195312 147.003906 C 318.183594 147.003906 320.25 153.101562 319.320312 158.722656 L 318.183594 165.601562 C 317.402344 170.3125 314.5 175.402344 306.65625 175.402344 C 296.671875 175.402344 294.5 169.304688 295.535156 163.636719 Z M 315.105469 158.269531 C 315.738281 154.664062 314.601562 150.582031 308.222656 150.582031 C 303.402344 150.582031 301.488281 154.035156 300.933594 157.132812 L 299.695312 164.113281 C 299.066406 167.71875 300.152344 171.851562 306.582031 171.851562 C 311.347656 171.851562 313.316406 168.347656 313.871094 165.25 Z M 315.105469 158.269531 " fill-opacity="1" fill-rule="nonzero"/><path fill="#000000" d="M 322.773438 174.847656 L 329.382812 137.152344 L 333.71875 137.152344 L 327.113281 174.847656 Z M 322.773438 174.847656 " fill-opacity="1" fill-rule="nonzero"/><path fill="#000000" d="M 352.710938 171.699219 C 351.097656 173.96875 348.472656 175.429688 344.691406 175.429688 C 337.804688 175.429688 334.097656 170.414062 335.285156 163.863281 L 336.570312 156.527344 C 337.554688 151.0625 341.285156 147.027344 347.261719 147.027344 C 351.703125 147.027344 354.753906 148.589844 356.039062 151.0625 L 358.511719 137.175781 L 362.800781 137.175781 L 356.191406 174.875 L 352.410156 174.875 Z M 353.847656 163.738281 L 354.730469 158.773438 C 355.511719 154.539062 354.046875 150.808594 347.691406 150.808594 C 342.976562 150.808594 341.335938 153.859375 340.605469 157.941406 L 339.621094 163.359375 C 338.839844 167.742188 339.773438 171.574219 346.078125 171.574219 C 350.894531 171.597656 353.113281 167.871094 353.847656 163.738281 Z M 353.847656 163.738281 " fill-opacity="1" fill-rule="nonzero"/><path fill="#000000" d="M 261.714844 222.351562 L 259.445312 235.101562 L 254.902344 235.101562 L 261.308594 198.941406 L 273.089844 198.941406 C 282.746094 198.941406 286.328125 203.375 286.328125 208.691406 C 286.328125 214.890625 283.378906 222.328125 272.054688 222.328125 L 261.714844 222.328125 Z M 265.167969 202.820312 L 262.371094 218.519531 L 272.128906 218.519531 C 279.570312 218.519531 281.6875 213.40625 281.6875 209.222656 C 281.6875 205.667969 279.570312 202.820312 272.785156 202.820312 Z M 265.167969 202.820312 " fill-opacity="1" fill-rule="nonzero"/><path fill="#000000" d="M 304.613281 231.851562 C 302.898438 234.21875 300.125 235.683594 296.191406 235.683594 C 289.582031 235.683594 286 230.667969 287.136719 224.117188 L 288.421875 216.78125 C 289.40625 211.3125 292.8125 207.28125 299.066406 207.28125 C 303.730469 207.28125 306.882812 208.996094 308.121094 211.566406 L 309.003906 207.835938 L 312.835938 207.835938 L 308.070312 235.101562 L 304.234375 235.101562 Z M 305.699219 224.015625 L 306.582031 218.796875 C 307.261719 214.714844 305.902344 211.113281 299.59375 211.113281 C 294.929688 211.113281 293.140625 214.261719 292.457031 218.242188 L 291.523438 223.660156 C 290.742188 228.199219 291.675781 231.925781 297.980469 231.925781 C 302.699219 231.902344 304.992188 228.296875 305.699219 224.015625 Z M 305.699219 224.015625 " fill-opacity="1" fill-rule="nonzero"/><path fill="#000000" d="M 315.183594 235.128906 L 320 207.863281 L 323.832031 207.863281 L 323.304688 212.347656 C 325.320312 209.398438 328.777344 207.332031 333.84375 207.332031 L 333.113281 211.515625 L 332.332031 211.515625 C 326.128906 211.515625 322.925781 215.394531 322.09375 220.082031 L 319.445312 235.101562 L 315.183594 235.101562 Z M 315.183594 235.128906 " fill-opacity="1" fill-rule="nonzero"/><path fill="#000000" d="M 347.011719 235.128906 L 345.449219 235.128906 C 337.074219 235.128906 335.15625 230.84375 336.089844 225.628906 L 338.613281 211.261719 L 334.679688 211.261719 L 335.257812 207.910156 L 339.242188 207.910156 L 340.480469 200.78125 L 344.765625 200.78125 L 343.53125 207.910156 L 350.921875 207.910156 L 350.367188 211.261719 L 342.925781 211.261719 L 340.328125 225.878906 C 339.695312 229.484375 340.90625 231.550781 346.230469 231.550781 L 347.667969 231.550781 Z M 347.011719 235.128906 " fill-opacity="1" fill-rule="nonzero"/><path fill="#000000" d="M 355.5625 235.128906 L 351.273438 235.128906 L 356.140625 207.863281 L 359.972656 207.863281 L 359.621094 211.113281 C 361.285156 208.84375 363.910156 207.28125 367.640625 207.28125 C 374.777344 207.28125 378.183594 212.296875 377.050781 218.546875 L 374.148438 235.128906 L 369.8125 235.128906 L 372.660156 219 C 373.390625 215.019531 372.207031 211.085938 366.355469 211.085938 C 361.488281 211.085938 359.21875 214.816406 358.613281 218.320312 Z M 355.5625 235.128906 " fill-opacity="1" fill-rule="nonzero"/><path fill="#000000" d="M 392.636719 235.683594 C 383.582031 235.683594 380.90625 229.683594 381.890625 224.117188 L 383.128906 216.984375 C 383.960938 212.398438 386.859375 207.28125 394.601562 207.28125 C 404.363281 207.28125 406.230469 213.429688 405.246094 219.050781 L 404.617188 222.730469 L 386.355469 222.730469 L 385.953125 225.046875 C 385.320312 228.550781 386.683594 232.230469 393.039062 232.230469 C 397.578125 232.230469 399.242188 229.332031 399.546875 227.644531 L 399.699219 226.8125 L 403.734375 226.8125 L 403.582031 227.59375 C 402.902344 230.996094 400.328125 235.683594 392.636719 235.683594 Z M 386.984375 219.300781 L 401.058594 219.300781 L 401.3125 217.964844 C 401.941406 214.515625 400.582031 210.683594 394.527344 210.683594 C 389.9375 210.683594 387.867188 214.035156 387.390625 216.933594 Z M 386.984375 219.300781 " fill-opacity="1" fill-rule="nonzero"/><path fill="#000000" d="M 408.246094 235.128906 L 413.066406 207.863281 L 416.898438 207.863281 L 416.367188 212.347656 C 418.386719 209.398438 421.839844 207.332031 426.910156 207.332031 L 426.179688 211.515625 L 425.398438 211.515625 C 419.191406 211.515625 415.992188 215.394531 415.15625 220.082031 L 412.507812 235.101562 L 408.246094 235.101562 Z M 408.246094 235.128906 " fill-opacity="1" fill-rule="nonzero"/></svg>